# Blender 3.3.0
# www.blender.org
mtllib Spike Trap.mtl
o Spike_Trap
v -1.000000 -1.000000 0.150000
v -1.000000 1.000000 0.150000
v -1.000000 -1.000000 -0.150000
v -1.000000 1.000000 -0.150000
v 1.000000 -1.000000 0.150000
v 1.000000 1.000000 0.150000
v 1.000000 -1.000000 -0.150000
v 1.000000 1.000000 -0.150000
v -0.760000 0.920000 0.129396
v -0.612776 0.835000 0.129396
v -0.612776 0.665000 0.129396
v -0.760000 0.580000 0.129396
v -0.907224 0.665000 0.129396
v -0.907224 0.835000 0.129396
v -0.760000 0.750000 0.629396
v -0.760000 0.546000 0.129396
v -0.612776 0.461000 0.129396
v -0.612776 0.291000 0.129396
v -0.760000 0.206000 0.129396
v -0.907224 0.291000 0.129396
v -0.907224 0.461000 0.129396
v -0.760000 0.376000 0.629396
v -0.760000 0.172000 0.129396
v -0.612776 0.087000 0.129396
v -0.612776 -0.083000 0.129396
v -0.760000 -0.168000 0.129396
v -0.907224 -0.083000 0.129396
v -0.907224 0.087000 0.129396
v -0.760000 0.002000 0.629396
v -0.760000 -0.202000 0.129396
v -0.612776 -0.287000 0.129396
v -0.612776 -0.457000 0.129396
v -0.760000 -0.542000 0.129396
v -0.907224 -0.457000 0.129396
v -0.907224 -0.287000 0.129396
v -0.760000 -0.372000 0.629396
v -0.760000 -0.576000 0.129396
v -0.612776 -0.661000 0.129396
v -0.612776 -0.831000 0.129396
v -0.760000 -0.916000 0.129396
v -0.907224 -0.831000 0.129396
v -0.907224 -0.661000 0.129396
v -0.760000 -0.746000 0.629396
v -0.377217 0.920000 0.129396
v -0.229992 0.835000 0.129396
v -0.229992 0.665000 0.129396
v -0.377217 0.580000 0.129396
v -0.524441 0.665000 0.129396
v -0.524441 0.835000 0.129396
v -0.377217 0.750000 0.629396
v -0.377217 0.546000 0.129396
v -0.229992 0.461000 0.129396
v -0.229992 0.291000 0.129396
v -0.377217 0.206000 0.129396
v -0.524441 0.291000 0.129396
v -0.524441 0.461000 0.129396
v -0.377217 0.376000 0.629396
v -0.377217 0.172000 0.129396
v -0.229992 0.087000 0.129396
v -0.229992 -0.083000 0.129396
v -0.377217 -0.168000 0.129396
v -0.524441 -0.083000 0.129396
v -0.524441 0.087000 0.129396
v -0.377217 0.002000 0.629396
v -0.377217 -0.202000 0.129396
v -0.229992 -0.287000 0.129396
v -0.229992 -0.457000 0.129396
v -0.377217 -0.542000 0.129396
v -0.524441 -0.457000 0.129396
v -0.524441 -0.287000 0.129396
v -0.377217 -0.372000 0.629396
v -0.377217 -0.576000 0.129396
v -0.229992 -0.661000 0.129396
v -0.229992 -0.831000 0.129396
v -0.377217 -0.916000 0.129396
v -0.524441 -0.831000 0.129396
v -0.524441 -0.661000 0.129396
v -0.377217 -0.746000 0.629396
v 0.005567 0.920000 0.129396
v 0.152791 0.835000 0.129396
v 0.152791 0.665000 0.129396
v 0.005567 0.580000 0.129396
v -0.141658 0.665000 0.129396
v -0.141658 0.835000 0.129396
v 0.005567 0.750000 0.629396
v 0.005567 0.546000 0.129396
v 0.152791 0.461000 0.129396
v 0.152791 0.291000 0.129396
v 0.005567 0.206000 0.129396
v -0.141658 0.291000 0.129396
v -0.141658 0.461000 0.129396
v 0.005567 0.376000 0.629396
v 0.005567 0.172000 0.129396
v 0.152791 0.087000 0.129396
v 0.152791 -0.083000 0.129396
v 0.005567 -0.168000 0.129396
v -0.141658 -0.083000 0.129396
v -0.141658 0.087000 0.129396
v 0.005567 0.002000 0.629396
v 0.005567 -0.202000 0.129396
v 0.152791 -0.287000 0.129396
v 0.152791 -0.457000 0.129396
v 0.005567 -0.542000 0.129396
v -0.141658 -0.457000 0.129396
v -0.141658 -0.287000 0.129396
v 0.005567 -0.372000 0.629396
v 0.005567 -0.576000 0.129396
v 0.152791 -0.661000 0.129396
v 0.152791 -0.831000 0.129396
v 0.005567 -0.916000 0.129396
v -0.141658 -0.831000 0.129396
v -0.141658 -0.661000 0.129396
v 0.005567 -0.746000 0.629396
v 0.388350 0.920000 0.129396
v 0.535574 0.835000 0.129396
v 0.535574 0.665000 0.129396
v 0.388350 0.580000 0.129396
v 0.241126 0.665000 0.129396
v 0.241126 0.835000 0.129396
v 0.388350 0.750000 0.629396
v 0.388350 0.546000 0.129396
v 0.535574 0.461000 0.129396
v 0.535574 0.291000 0.129396
v 0.388350 0.206000 0.129396
v 0.241126 0.291000 0.129396
v 0.241126 0.461000 0.129396
v 0.388350 0.376000 0.629396
v 0.388350 0.172000 0.129396
v 0.535574 0.087000 0.129396
v 0.535574 -0.083000 0.129396
v 0.388350 -0.168000 0.129396
v 0.241126 -0.083000 0.129396
v 0.241126 0.087000 0.129396
v 0.388350 0.002000 0.629396
v 0.388350 -0.202000 0.129396
v 0.535574 -0.287000 0.129396
v 0.535574 -0.457000 0.129396
v 0.388350 -0.542000 0.129396
v 0.241126 -0.457000 0.129396
v 0.241126 -0.287000 0.129396
v 0.388350 -0.372000 0.629396
v 0.388350 -0.576000 0.129396
v 0.535574 -0.661000 0.129396
v 0.535574 -0.831000 0.129396
v 0.388350 -0.916000 0.129396
v 0.241126 -0.831000 0.129396
v 0.241126 -0.661000 0.129396
v 0.388350 -0.746000 0.629396
v 0.771133 0.920000 0.129396
v 0.918357 0.835000 0.129396
v 0.918357 0.665000 0.129396
v 0.771133 0.580000 0.129396
v 0.623909 0.665000 0.129396
v 0.623909 0.835000 0.129396
v 0.771133 0.750000 0.629396
v 0.771133 0.546000 0.129396
v 0.918357 0.461000 0.129396
v 0.918357 0.291000 0.129396
v 0.771133 0.206000 0.129396
v 0.623909 0.291000 0.129396
v 0.623909 0.461000 0.129396
v 0.771133 0.376000 0.629396
v 0.771133 0.172000 0.129396
v 0.918357 0.087000 0.129396
v 0.918357 -0.083000 0.129396
v 0.771133 -0.168000 0.129396
v 0.623909 -0.083000 0.129396
v 0.623909 0.087000 0.129396
v 0.771133 0.002000 0.629396
v 0.771133 -0.202000 0.129396
v 0.918357 -0.287000 0.129396
v 0.918357 -0.457000 0.129396
v 0.771133 -0.542000 0.129396
v 0.623909 -0.457000 0.129396
v 0.623909 -0.287000 0.129396
v 0.771133 -0.372000 0.629396
v 0.771133 -0.576000 0.129396
v 0.918357 -0.661000 0.129396
v 0.918357 -0.831000 0.129396
v 0.771133 -0.916000 0.129396
v 0.623909 -0.831000 0.129396
v 0.623909 -0.661000 0.129396
v 0.771133 -0.746000 0.629396
vn -1.0000 -0.0000 -0.0000
vn -0.0000 -0.0000 -1.0000
vn 1.0000 -0.0000 -0.0000
vn -0.0000 -0.0000 1.0000
vn -0.0000 -1.0000 -0.0000
vn -0.0000 1.0000 -0.0000
vn -0.0000 0.9468 0.3219
vn 0.8199 0.4734 0.3219
vn 0.8199 -0.4734 0.3219
vn -0.0000 -0.9468 0.3219
vn -0.8199 -0.4734 0.3219
vn -0.8199 0.4734 0.3219
vt 0.620143 0.003793
vt 0.003793 0.380239
vt 0.380239 0.003793
vt 0.620143 0.372652
vt 0.003793 0.749098
vt 0.443155 0.372652
vt 0.566900 0.003793
vt 0.372652 0.003793
vt 0.435568 0.003793
vt 0.566900 0.372652
vt 0.372652 0.372652
vt 0.498484 0.372652
vt 0.506070 0.003793
vt 0.372652 0.380239
vt 0.380239 0.372652
vt 0.506070 0.372652
vt 0.372652 0.749098
vt 0.443155 0.003793
vt 0.003793 0.003793
vt 0.559313 0.003793
vt 0.435568 0.372652
vt 0.003793 0.372652
vt 0.559313 0.372652
vt 0.498484 0.003793
vt 0.773137 0.011463
vt 0.747091 0.019132
vt 0.251361 0.952610
vt 0.282714 0.952610
vt 0.687410 0.292016
vt 0.713457 0.299685
vt 0.739504 0.307354
vt 0.576662 0.887450
vt 0.607606 0.892496
vt 0.799184 0.003793
vt 0.267037 0.856486
vt 0.739504 0.211225
vt 0.607606 0.795103
vt 0.799184 0.099923
vt 0.764369 0.595340
vt 0.738322 0.603010
vt 0.946134 0.307337
vt 0.977487 0.307337
vt 0.798003 0.572255
vt 0.825155 0.572255
vt 0.852308 0.572255
vt 0.868663 0.096140
vt 0.899607 0.101187
vt 0.790416 0.587671
vt 0.961810 0.211214
vt 0.825155 0.480041
vt 0.899607 0.003793
vt 0.790416 0.683800
vt 0.773137 0.115179
vt 0.747091 0.122848
vt 0.952536 0.875569
vt 0.983889 0.875569
vt 0.747091 0.292016
vt 0.773137 0.299685
vt 0.799184 0.307354
vt 0.836943 0.980549
vt 0.868296 0.980549
vt 0.799184 0.107509
vt 0.968212 0.779445
vt 0.799184 0.211225
vt 0.852619 0.884426
vt 0.799184 0.203639
vt 0.833924 0.096008
vt 0.861076 0.096008
vt 0.166517 0.952610
vt 0.197870 0.952610
vt 0.687410 0.084584
vt 0.713457 0.092253
vt 0.739504 0.099923
vt 0.738322 0.887450
vt 0.769266 0.892496
vt 0.806771 0.096008
vt 0.182194 0.856486
vt 0.739504 0.003793
vt 0.769266 0.795103
vt 0.833924 0.003793
vt 0.585327 0.699056
vt 0.559281 0.706726
vt 0.890839 0.380239
vt 0.859895 0.385286
vt 0.687410 0.188300
vt 0.713457 0.195969
vt 0.739504 0.203639
vt 0.859895 0.682546
vt 0.890839 0.687593
vt 0.611374 0.691387
vt 0.890839 0.477632
vt 0.739504 0.107509
vt 0.890839 0.590199
vt 0.611374 0.787516
vt 0.525647 0.595340
vt 0.499600 0.603010
vt 0.530544 0.795103
vt 0.499600 0.800150
vt 0.432333 0.587671
vt 0.406286 0.595340
vt 0.380239 0.603010
vt 0.042733 0.952610
vt 0.074086 0.952610
vt 0.551694 0.587671
vt 0.530544 0.892496
vt 0.432333 0.683800
vt 0.058410 0.856486
vt 0.551694 0.683800
vt 0.653776 0.218895
vt 0.627730 0.226564
vt 0.937366 0.685053
vt 0.968719 0.685053
vt 0.492013 0.587671
vt 0.465966 0.595340
vt 0.439920 0.603010
vt 0.899607 0.213754
vt 0.868663 0.218800
vt 0.679823 0.211225
vt 0.953042 0.588930
vt 0.492013 0.683800
vt 0.899607 0.311147
vt 0.679823 0.307354
vt 0.278513 0.848899
vt 0.305666 0.848899
vt 0.952536 0.979279
vt 0.983889 0.979279
vt 0.798003 0.771858
vt 0.825155 0.771858
vt 0.852308 0.771858
vt 0.946134 0.203627
vt 0.977487 0.203627
vt 0.251361 0.848899
vt 0.968212 0.883156
vt 0.825155 0.679644
vt 0.961810 0.107504
vt 0.278513 0.756685
vt 0.704689 0.676131
vt 0.730735 0.683800
vt 0.290301 0.952610
vt 0.321654 0.952610
vt 0.730735 0.380239
vt 0.704689 0.387909
vt 0.678642 0.395578
vt 0.127577 0.952610
vt 0.158930 0.952610
vt 0.678642 0.668461
vt 0.305977 0.856486
vt 0.730735 0.476368
vt 0.143254 0.856486
vt 0.730735 0.587671
vt 0.704689 0.572415
vt 0.730735 0.580084
vt 0.867478 0.779445
vt 0.836534 0.784492
vt 0.671055 0.587671
vt 0.645008 0.595340
vt 0.618961 0.603010
vt 0.907194 0.203627
vt 0.938547 0.203627
vt 0.678642 0.564745
vt 0.867478 0.876839
vt 0.671055 0.683800
vt 0.922871 0.107504
vt 0.730735 0.483955
vt 0.764369 0.491624
vt 0.738322 0.499294
vt 0.859895 0.577566
vt 0.890839 0.582613
vt 0.499600 0.772177
vt 0.525647 0.779847
vt 0.551694 0.787516
vt 0.329241 0.952610
vt 0.360594 0.952610
vt 0.790416 0.483955
vt 0.890839 0.485219
vt 0.551694 0.691387
vt 0.344917 0.856486
vt 0.790416 0.580084
vt 0.764369 0.387908
vt 0.738322 0.395578
vt 0.899607 0.108774
vt 0.868663 0.113820
vt 0.806771 0.195810
vt 0.833924 0.195810
vt 0.861076 0.195810
vt 0.875065 0.871792
vt 0.906009 0.876839
vt 0.790416 0.380239
vt 0.899607 0.206167
vt 0.833924 0.103595
vt 0.906009 0.779445
vt 0.790416 0.476368
vt 0.704689 0.699056
vt 0.678642 0.706726
vt 0.798003 0.980549
vt 0.829356 0.980549
vt 0.738322 0.772177
vt 0.764369 0.779847
vt 0.790416 0.787516
vt 0.419179 0.996207
vt 0.450532 0.996207
vt 0.730735 0.691387
vt 0.813679 0.884425
vt 0.790416 0.691387
vt 0.434855 0.900083
vt 0.730735 0.787516
vt 0.833924 0.295611
vt 0.861076 0.295611
vt 0.081673 0.952610
vt 0.113026 0.952610
vt 0.380239 0.772177
vt 0.406286 0.779847
vt 0.432333 0.787516
vt 0.657492 0.887450
vt 0.688437 0.892496
vt 0.806771 0.295611
vt 0.097350 0.856486
vt 0.432333 0.691387
vt 0.688437 0.795103
vt 0.833924 0.203396
vt 0.645008 0.699056
vt 0.618961 0.706726
vt 0.828947 0.779445
vt 0.798003 0.784492
vt 0.439920 0.772177
vt 0.465966 0.779847
vt 0.492013 0.787516
vt 0.907194 0.307337
vt 0.938547 0.307337
vt 0.671055 0.691387
vt 0.828947 0.876839
vt 0.492013 0.691387
vt 0.922871 0.211214
vt 0.671055 0.787516
vt 0.340405 0.848899
vt 0.367558 0.848899
vt 0.457301 0.887450
vt 0.488245 0.892496
vt 0.127577 0.848899
vt 0.154730 0.848899
vt 0.181882 0.848899
vt 0.205457 0.952610
vt 0.236810 0.952610
vt 0.313253 0.848899
vt 0.488245 0.795103
vt 0.154730 0.756685
vt 0.221133 0.856486
vt 0.340405 0.756685
vt 0.825155 0.472454
vt 0.852308 0.472454
vt 0.937366 0.581343
vt 0.968719 0.581343
vt 0.003793 0.848899
vt 0.030946 0.848899
vt 0.058098 0.848899
vt 0.929370 0.380239
vt 0.898426 0.385286
vt 0.798003 0.472454
vt 0.953042 0.485219
vt 0.030946 0.756685
vt 0.929370 0.477632
vt 0.825155 0.380239
vt 0.825155 0.672057
vt 0.852308 0.672057
vt 0.946134 0.099917
vt 0.977487 0.099917
vt 0.189469 0.848899
vt 0.216622 0.848899
vt 0.243774 0.848899
vt 0.458119 0.996207
vt 0.489472 0.996207
vt 0.798003 0.672057
vt 0.961810 0.003793
vt 0.216622 0.756685
vt 0.473795 0.900083
vt 0.825155 0.579842
vt 0.653776 0.092253
vt 0.679823 0.099923
vt 0.003793 0.952610
vt 0.035146 0.952610
vt 0.551694 0.380239
vt 0.525647 0.387909
vt 0.499600 0.395578
vt 0.538131 0.887450
vt 0.569075 0.892496
vt 0.627730 0.084584
vt 0.019470 0.856486
vt 0.551694 0.476368
vt 0.569075 0.795103
vt 0.679823 0.003793
vt 0.465966 0.572415
vt 0.492013 0.580084
vt 0.898426 0.686323
vt 0.929779 0.686323
vt 0.432333 0.380239
vt 0.406286 0.387909
vt 0.380239 0.395578
vt 0.907194 0.099917
vt 0.938547 0.099917
vt 0.439920 0.564745
vt 0.914102 0.590199
vt 0.432333 0.476368
vt 0.922871 0.003793
vt 0.492013 0.483955
vt 0.585328 0.468699
vt 0.611374 0.476368
vt 0.618961 0.887450
vt 0.649905 0.892496
vt 0.611374 0.483955
vt 0.585328 0.491624
vt 0.559281 0.499294
vt 0.449714 0.795103
vt 0.418770 0.800150
vt 0.559281 0.461029
vt 0.649905 0.795103
vt 0.611374 0.580084
vt 0.449714 0.892496
vt 0.611374 0.380239
vt 0.645008 0.572415
vt 0.671055 0.580084
vt 0.913596 0.979279
vt 0.944949 0.979279
vt 0.065685 0.848899
vt 0.092838 0.848899
vt 0.119990 0.848899
vt 0.936957 0.476363
vt 0.968310 0.476363
vt 0.618961 0.564745
vt 0.929272 0.883155
vt 0.092838 0.756685
vt 0.952633 0.380239
vt 0.671055 0.483955
vt 0.645008 0.387909
vt 0.618961 0.395578
vt 0.499600 0.996207
vt 0.530953 0.996207
vt 0.559281 0.668461
vt 0.585328 0.676131
vt 0.611374 0.683800
vt 0.380239 0.996207
vt 0.411592 0.996207
vt 0.671055 0.380239
vt 0.515277 0.900083
vt 0.611374 0.587671
vt 0.395916 0.900083
vt 0.671055 0.476368
vt 0.653776 0.195969
vt 0.679823 0.203639
vt 0.726967 0.795103
vt 0.696023 0.800150
vt 0.432333 0.483955
vt 0.406286 0.491624
vt 0.380239 0.499294
vt 0.380239 0.887450
vt 0.411183 0.892496
vt 0.627730 0.188300
vt 0.726967 0.892496
vt 0.432333 0.580084
vt 0.411183 0.795103
vt 0.679823 0.107509
vt 0.525647 0.491625
vt 0.499600 0.499294
vt 0.913596 0.875569
vt 0.944949 0.875569
vt 0.492013 0.380239
vt 0.465966 0.387909
vt 0.439920 0.395578
vt 0.898426 0.581343
vt 0.929779 0.581343
vt 0.551694 0.483955
vt 0.929272 0.779445
vt 0.492013 0.476368
vt 0.914102 0.485219
vt 0.551694 0.580084
s 0
usemtl Spike_Trap
f 1/1/1 2/4/1 4/10/1 3/7/1
f 3/8/2 4/11/2 8/22/2 7/19/2
f 7/20/3 8/23/3 6/16/3 5/13/3
f 5/14/4 6/17/4 2/5/4 1/2/4
f 3/9/5 7/21/5 5/15/5 1/3/5
f 8/24/6 4/12/6 2/6/6 6/18/6
s 1
f 9/25/7 15/38/4 10/26/8
f 10/27/8 15/35/4 11/28/9
f 11/29/9 15/36/4 12/30/10
f 12/30/10 15/36/4 13/31/11
f 13/32/11 15/37/4 14/33/12
f 14/34/12 15/38/4 9/25/7
f 16/39/7 22/52/4 17/40/8
f 17/41/8 22/49/4 18/42/9
f 18/43/9 22/50/4 19/44/10
f 19/44/10 22/50/4 20/45/11
f 20/46/11 22/51/4 21/47/12
f 21/48/12 22/52/4 16/39/7
f 23/53/7 29/66/4 24/54/8
f 24/55/8 29/63/4 25/56/9
f 25/57/9 29/64/4 26/58/10
f 26/58/10 29/64/4 27/59/11
f 27/60/11 29/65/4 28/61/12
f 28/62/12 29/66/4 23/53/7
f 30/67/7 36/80/4 31/68/8
f 31/69/8 36/77/4 32/70/9
f 32/71/9 36/78/4 33/72/10
f 33/72/10 36/78/4 34/73/11
f 34/74/11 36/79/4 35/75/12
f 35/76/12 36/80/4 30/67/7
f 37/81/7 43/94/4 38/82/8
f 38/83/8 43/91/4 39/84/9
f 39/85/9 43/92/4 40/86/10
f 40/86/10 43/92/4 41/87/11
f 41/88/11 43/93/4 42/89/12
f 42/90/12 43/94/4 37/81/7
f 44/95/7 50/108/4 45/96/8
f 45/97/8 50/105/4 46/98/9
f 46/99/9 50/106/4 47/100/10
f 47/100/10 50/106/4 48/101/11
f 48/102/11 50/107/4 49/103/12
f 49/104/12 50/108/4 44/95/7
f 51/109/7 57/122/4 52/110/8
f 52/111/8 57/119/4 53/112/9
f 53/113/9 57/120/4 54/114/10
f 54/114/10 57/120/4 55/115/11
f 55/116/11 57/121/4 56/117/12
f 56/118/12 57/122/4 51/109/7
f 58/123/7 64/136/4 59/124/8
f 59/125/8 64/133/4 60/126/9
f 60/127/9 64/134/4 61/128/10
f 61/128/10 64/134/4 62/129/11
f 62/130/11 64/135/4 63/131/12
f 63/132/12 64/136/4 58/123/7
f 65/137/7 71/150/4 66/138/8
f 66/139/8 71/147/4 67/140/9
f 67/141/9 71/148/4 68/142/10
f 68/142/10 71/148/4 69/143/11
f 69/144/11 71/149/4 70/145/12
f 70/146/12 71/150/4 65/137/7
f 72/151/7 78/164/4 73/152/8
f 73/153/8 78/161/4 74/154/9
f 74/155/9 78/162/4 75/156/10
f 75/156/10 78/162/4 76/157/11
f 76/158/11 78/163/4 77/159/12
f 77/160/12 78/164/4 72/151/7
f 79/165/7 85/178/4 80/166/8
f 80/167/8 85/175/4 81/168/9
f 81/169/9 85/176/4 82/170/10
f 82/170/10 85/176/4 83/171/11
f 83/172/11 85/177/4 84/173/12
f 84/174/12 85/178/4 79/165/7
f 86/179/7 92/192/4 87/180/8
f 87/181/8 92/189/4 88/182/9
f 88/183/9 92/190/4 89/184/10
f 89/184/10 92/190/4 90/185/11
f 90/186/11 92/191/4 91/187/12
f 91/188/12 92/192/4 86/179/7
f 93/193/7 99/206/4 94/194/8
f 94/195/8 99/203/4 95/196/9
f 95/197/9 99/204/4 96/198/10
f 96/198/10 99/204/4 97/199/11
f 97/200/11 99/205/4 98/201/12
f 98/202/12 99/206/4 93/193/7
f 100/207/7 106/220/4 101/208/8
f 101/209/8 106/217/4 102/210/9
f 102/211/9 106/218/4 103/212/10
f 103/212/10 106/218/4 104/213/11
f 104/214/11 106/219/4 105/215/12
f 105/216/12 106/220/4 100/207/7
f 107/221/7 113/234/4 108/222/8
f 108/223/8 113/231/4 109/224/9
f 109/225/9 113/232/4 110/226/10
f 110/226/10 113/232/4 111/227/11
f 111/228/11 113/233/4 112/229/12
f 112/230/12 113/234/4 107/221/7
f 114/235/7 120/248/4 115/236/8
f 115/237/8 120/245/4 116/238/9
f 116/239/9 120/246/4 117/240/10
f 117/240/10 120/246/4 118/241/11
f 118/242/11 120/247/4 119/243/12
f 119/244/12 120/248/4 114/235/7
f 121/249/7 127/262/4 122/250/8
f 122/251/8 127/259/4 123/252/9
f 123/253/9 127/260/4 124/254/10
f 124/254/10 127/260/4 125/255/11
f 125/256/11 127/261/4 126/257/12
f 126/258/12 127/262/4 121/249/7
f 128/263/7 134/276/4 129/264/8
f 129/265/8 134/273/4 130/266/9
f 130/267/9 134/274/4 131/268/10
f 131/268/10 134/274/4 132/269/11
f 132/270/11 134/275/4 133/271/12
f 133/272/12 134/276/4 128/263/7
f 135/277/7 141/290/4 136/278/8
f 136/279/8 141/287/4 137/280/9
f 137/281/9 141/288/4 138/282/10
f 138/282/10 141/288/4 139/283/11
f 139/284/11 141/289/4 140/285/12
f 140/286/12 141/290/4 135/277/7
f 142/291/7 148/304/4 143/292/8
f 143/293/8 148/301/4 144/294/9
f 144/295/9 148/302/4 145/296/10
f 145/296/10 148/302/4 146/297/11
f 146/298/11 148/303/4 147/299/12
f 147/300/12 148/304/4 142/291/7
f 149/305/7 155/318/4 150/306/8
f 150/307/8 155/315/4 151/308/9
f 151/309/9 155/316/4 152/310/10
f 152/310/10 155/316/4 153/311/11
f 153/312/11 155/317/4 154/313/12
f 154/314/12 155/318/4 149/305/7
f 156/319/7 162/332/4 157/320/8
f 157/321/8 162/329/4 158/322/9
f 158/323/9 162/330/4 159/324/10
f 159/324/10 162/330/4 160/325/11
f 160/326/11 162/331/4 161/327/12
f 161/328/12 162/332/4 156/319/7
f 163/333/7 169/346/4 164/334/8
f 164/335/8 169/343/4 165/336/9
f 165/337/9 169/344/4 166/338/10
f 166/338/10 169/344/4 167/339/11
f 167/340/11 169/345/4 168/341/12
f 168/342/12 169/346/4 163/333/7
f 170/347/7 176/360/4 171/348/8
f 171/349/8 176/357/4 172/350/9
f 172/351/9 176/358/4 173/352/10
f 173/352/10 176/358/4 174/353/11
f 174/354/11 176/359/4 175/355/12
f 175/356/12 176/360/4 170/347/7
f 177/361/7 183/374/4 178/362/8
f 178/363/8 183/371/4 179/364/9
f 179/365/9 183/372/4 180/366/10
f 180/366/10 183/372/4 181/367/11
f 181/368/11 183/373/4 182/369/12
f 182/370/12 183/374/4 177/361/7
